<?xml version="1.0" encoding="utf-8"?>
<svg
  width="280"
  height="100"
  viewBox="118.131 22.955 47.82 54.724"
  class="css-1j8o68f"
  style="background-color: #f9c74f"
  xmlns="http://www.w3.org/2000/svg"
>
  <g
    id="SvgjsG1653"
    featurekey="rootContainer"
    transform="matrix(1,0,0,1,0,0)"
    fill="#101319"
  >
    <rect y="0" height="1" width="1" opacity="0" />
  </g>
  <g
    id="SvgjsG1654"
    featurekey="nameFeature-0"
    transform="matrix(1.598443, 0, 0, 1.598443, -1.064733, 1.630199)"
    fill="#101319"
  >
    <path
      d="M 97.154 38.717 C 97.194 40.637 97.154 42.597 97.034 44.517 C 97.034 44.677 96.914 44.837 96.794 44.917 C 96.634 45.037 96.434 45.117 96.234 45.117 C 93.754 45.517 90.754 45.717 88.354 44.917 C 82.954 43.077 79.274 37.037 79.274 30.117 C 79.274 22.637 84.634 15.357 92.434 15.077 C 93.474 15.037 97.034 14.877 96.914 16.637 C 96.834 17.917 96.954 18.957 96.914 20.277 C 96.914 20.517 96.754 20.677 96.514 20.637 C 94.234 20.357 91.634 19.637 89.434 20.677 C 87.594 21.557 86.314 23.437 85.594 25.277 C 84.314 28.317 84.594 31.837 85.474 34.957 C 86.154 37.437 87.634 40.357 90.594 40.437 C 90.754 40.477 92.274 40.557 92.274 40.397 L 92.154 35.277 C 92.114 35.037 92.114 34.797 92.074 34.557 C 92.034 34.317 91.874 34.237 91.634 34.197 C 90.994 34.197 90.994 34.157 90.354 34.157 C 88.874 34.157 89.194 33.157 89.154 32.837 C 89.114 32.237 89.154 31.677 89.114 31.077 C 89.074 30.517 89.234 30.077 89.794 29.997 L 90.274 29.997 C 92.354 29.877 94.474 30.037 96.674 30.037 C 96.994 30.037 97.154 30.437 97.154 30.797 C 97.194 31.197 97.194 31.477 97.194 31.877 C 97.314 33.837 97.074 35.837 97.114 37.797 C 97.154 38.117 97.154 38.397 97.154 38.717 Z"
    />
  </g>
</svg>
